/* XPM */
static char *icon_xpm[] = {
/* columns rows colors chars-per-pixel */
"32 32 6 1",
"  c #000000",
". c #FF0000",
"X c #00FF00",
"o c #FFFF00",
"O c #0000FF",
"+ c #FF00FF",
/* pixels */
"                                ",
"                   XXX          ",
"                  XXXX +        ",
"                 XXXXX +        ",
"                 XXXXX +        ",
"                XXXXX ++        ",
"                XXXXX +         ",
"                XXXX ++         ",
"                XXX +           ",
"          XXX        XXXX       ",
"        XXXXXXX    XXXXXXXX     ",
"       XXXXXXXXXXXXXXXXXXXX +   ",
"      XXXXXXXXXXXXXXXXXXX  ++   ",
"      oooooooooooooooooo +++    ",
"     ooooooooooooooooooo +      ",
"     oooooooooooooooooo ++      ",
"     oooooooooooooooooo +       ",
"     oooooooooooooooooo +       ",
"     oooooooooooooooooo +       ",
"     ooooooooooooooooooo        ",
"     ................... +      ",
"     ....................       ",
"      .....................     ",
"                            +   ",
"                            +   ",
"                            +   ",
"                           ++   ",
"        OOOOOOOOOOOOOOOOO ++    ",
"         OOOOOO   OOOOOO ++     ",
"          OOO  +++  OOO ++      ",
"             +++   +   ++       ",
"           +++       +++        "
};
